<?xml version="1.0" encoding="UTF-8"?><svg id="Lockups" xmlns="http://www.w3.org/2000/svg" xmlns:xlink="http://www.w3.org/1999/xlink" viewBox="0 0 1040 361.94"><defs><style>.cls-1{fill:url(#linear-gradient);}.cls-2{fill:#fff;}</style><linearGradient id="linear-gradient" x1="60.41" y1="9097.69" x2="38.73" y2="9060.13" gradientTransform="translate(0 9137.41) scale(1 -1)" gradientUnits="userSpaceOnUse"><stop offset="0" stop-color="#fff" stop-opacity=".4"/><stop offset=".92" stop-color="#fff"/></linearGradient></defs><g id="Logos"><g id="Layer_1-2"><g id="Layer_2-2"><g id="Blue"><polygon class="cls-2" points="568.58 13.01 568.58 72.7 581.28 72.7 581.28 27.25 586.65 39.3 604.61 72.7 620.6 72.7 620.6 13.01 607.89 13.01 607.89 51.56 603.07 40.39 588.62 13.01 568.58 13.01"/><rect class="cls-2" x="473.85" y="13.01" width="13.91" height="59.57"/><path class="cls-2" d="M457.86,55.07c0-10.4-5.48-15.33-21.14-18.73-8.65-1.86-10.73-3.83-10.73-6.57,0-3.5,3.07-4.93,8.76-4.93,6.9,0,13.69,2.08,20.15,5.04v-13.69c-6.13-2.85-12.92-4.16-19.71-4.05-15.44,0-23.44,6.68-23.44,17.74,0,8.76,4.05,15.77,20.04,18.84,9.53,1.97,11.5,3.5,11.5,6.68s-1.97,5.04-8.76,5.04c-8.1-.11-16.1-2.3-23.11-6.24v14.35c4.82,2.41,11.17,5.04,23,5.04,16.76,0,23.33-7.45,23.44-18.51"/><path class="cls-2" d="M400.04,55.07c0-10.4-5.48-15.33-21.14-18.73-8.65-1.86-10.73-3.83-10.73-6.57,0-3.5,3.07-4.93,8.76-4.93,6.9,0,13.69,2.08,20.15,5.04v-13.69c-6.13-2.85-12.92-4.16-19.71-4.05-15.44,0-23.44,6.68-23.44,17.74,0,8.76,4.05,15.77,20.04,18.84,9.53,1.97,11.5,3.5,11.5,6.68s-1.97,5.04-8.76,5.04c-8.1-.11-15.99-2.3-23.11-6.24v14.35c4.82,2.41,11.17,5.04,23,5.04,16.76,0,23.44-7.45,23.44-18.51"/><polygon class="cls-2" points="246.17 13.01 246.17 72.7 274.75 72.7 279.24 59.78 260.19 59.78 260.19 13.01 246.17 13.01"/><polygon class="cls-2" points="189.77 13.01 189.77 25.94 205.21 25.94 205.21 72.7 219.23 72.7 219.23 25.94 235.77 25.94 235.77 13.01 189.77 13.01"/><path class="cls-2" d="M169.51,13.01h-18.29l-20.81,59.57h15.99l2.96-10.08c7.23,2.19,15,2.19,22.23,0l2.96,10.08h15.88l-20.92-59.57Zm-9.09,38.88c-2.63,0-5.15-.33-7.67-1.1l7.67-26.06,7.67,26.06c-2.52,.66-5.04,1.1-7.67,1.1h0Z"/><path class="cls-2" d="M323.93,13.01h-18.29l-20.81,59.57h15.88l2.96-10.08c7.23,2.08,15,2.08,22.23,0l2.96,10.08h15.88l-20.81-59.57Zm-9.09,38.88c-2.63,0-5.15-.33-7.67-1.1l7.67-26.06,7.67,26.06c-2.52,.66-5.15,1.1-7.67,1.1h0Z"/><path class="cls-2" d="M537.8,13.01h-18.29l-20.81,59.57h15.88l2.96-10.08c7.23,2.08,15,2.08,22.23,0l2.96,10.08h15.88l-20.81-59.57Zm-9.2,38.88c-2.63,0-5.15-.33-7.67-1.1l7.67-26.06,7.67,26.06c-2.41,.66-5.04,1.1-7.67,1.1h0Z"/></g></g><path class="cls-1" d="M50.36,34.04h0c-.33-.44-.99-.66-1.53-.66-.44,.11-.88,.44-1.1,.88l-17.96,36.14c-.44,.77-.11,1.75,.66,2.08,.22,.11,.44,.22,.66,.22h25.19c.55,0,1.2-.33,1.42-.88,5.26-10.95,1.97-27.93-7.34-37.78Z"/><path class="cls-2" d="M101.94,70.4c-.33-.66-33.84-67.68-34.61-69.32-.22-.44-.66-.77-1.2-.88h0c-.55,0-1.1,.33-1.42,.88h0c-9.09,14.35-10.08,31.76-2.74,46.43l12.16,24.2c.22,.55,.77,.88,1.42,.88h25.19c.88,0,1.53-.77,1.53-1.64-.22-.11-.33-.33-.33-.55h0Z"/></g></g><g><path class="cls-2" d="M865.51,116.26c-9.38,0-15.33,5.66-15.33,14.88,0,7,3.72,11.31,11.16,11.31-2.53,4.62-8.78,7-16.22,7.44l-2.38,13.55c23.81-.15,36.02-16.22,36.02-31.7,0-11.01-5.21-15.48-13.25-15.48Z"/><path class="cls-2" d="M820.77,304.89c-11.05,0-13.53-11.77-11.63-23.29l5.12-29.3c1.92-9.94,2.88-18.91,2.88-26.93,0-24.68-13.79-41.35-39.43-41.35-22.76,0-41.03,14.43-54.18,40.39,0-23.72-13.79-40.39-39.43-40.39-21.16,0-38.15,12.5-51.29,34.94l4.84-25.23c.82-4.46-2.61-8.57-7.14-8.57h-58.28c-3.52,0-6.54,2.53-7.15,6l-28.57,159.43c-.79,4.45,2.63,8.53,7.15,8.53h58.33c3.53,0,6.55-2.54,7.15-6.01l15.99-90.87c2.24-13.46,7.37-18.27,14.1-18.27,5.77,0,8.02,3.53,8.02,8.98,0,.96,0,1.6-.32,3.21l-16.27,94.44c-.79,4.45,2.63,8.53,7.15,8.53h58.33c3.53,0,6.55-2.54,7.15-6.01l15.45-90.87c2.24-13.46,7.37-18.27,14.11-18.27,5.77,0,8.01,3.53,8.01,8.98,0,.96,0,1.92-.32,3.21,0,0-7.34,33.73-8.7,48.75-3.42,37.74,20.98,56.84,47.68,56.84,52.13,0,65.47-45.37,54.85-62.83,0,0-3.97,5.99-13.58,5.99Z"/><path class="cls-2" d="M117.62,274.77s0,0,0,.01c.03-.18,.04-.23,0-.01Z"/><path class="cls-2" d="M158.9,184.92h-25.85l4.23-23.39c.97-5.35-3.14-10.27-8.58-10.27h-55.38c-4.22,0-7.83,3.02-8.58,7.16l-4.8,26.5-36.1,.32c-4.24,0-6.8,1.5-8.45,6.23L.98,233.32c-1.63,4.72,1.88,9.63,6.87,9.63H49.7l-7.37,42.32c-.96,6.09-1.89,11.27-2.64,17.12-4.2,32.93,12.92,59.12,51.73,59.12s63.59-39.63,50.52-62.61c0,0-4.35,6-12.89,6-16.88,0-13.36-19.22-11.42-30.12,0,.01,0,.04-.01,.05,0-.03,0-.04,.01-.07l5.49-31.82h20.6c3.09,0,5.84-1.95,6.86-4.87l15.19-43.5c1.65-4.72-1.86-9.66-6.86-9.66Zm-41.43,90.72c.01-.07,.02-.14,.04-.21-.01,.07-.02,.14-.04,.21Zm-.55,3.09c-.04,.25-.05,.29,0,0h0Zm.33-1.87c.02-.1,.03-.18,.05-.29-.02,.1-.03,.19-.05,.29Z"/><path class="cls-2" d="M513.47,304.97c-11.35,0-13.16-12.66-11.14-23.74l14.92-86.27c1.31-7.14-.15-9.81-6.47-9.81h-58.78c-3.52,0-6.53,2.52-7.15,5.99l-4.86,30.01c-4.81-18.27-17.31-36.74-42.32-36.74-44.88,0-68.61,63.03-68.61,115.6,0,38.79,12.18,60.27,40.71,60.27,19.56,0,40.34-10.58,53.48-33.34,2.59,12.19,20.17,34.63,52.5,34.63,47.23,0,63.11-43.29,51.86-62.6,0,0-3.8,5.99-14.14,5.99Zm-81.5-38.93l-2.25,13.46c-2.56,13.79-8.79,19.88-14.53,19.88-6.73,0-10.58-4.81-10.58-15.07,0-19.88,7.69-38.47,19.56-38.47,5.27,0,8.76,3.85,8.76,12.18,0,2.24-.32,4.81-.96,8.01Z"/><path class="cls-2" d="M258.23,182.05c-53.36,0-85.66,27.77-95.79,80.27-10.38,53.79,27.89,99.19,83.3,99.19,63.29,0,69.86-47.54,62.35-67.56-9.7,9.07-19.2,13.45-38.8,13.45-17.67,0-28.88-7.97-32.38-23.07,6.78,5.71,19.66,9.24,32.16,9.24,22.94,0,48.93-16.85,53.36-39.5,6.2-31.75-10.27-72.03-64.2-72.03Zm8.07,62.8c-2.36,9.78-10.43,17.09-20.31,17.09-7.05,0-8.85-3.1-8.85-3.1,4.45-24.45,14.36-37.24,23.27-37.24,6.02,0,8.6,12.06,5.9,23.25Z"/><g><path class="cls-2" d="M873.78,216.13l4.56-25.87,38.52-24.99c8.23-5.44,10.58-8.82,10.58-13.08,0-4.7-3.53-6.91-9.85-6.91-9.55,0-20.88,3.53-31.31,8.82l4.85-27.19c7.64-4.56,17.93-8.97,34.1-8.97,21.76,0,32.63,10.29,32.63,28.52,0,12.2-7.94,22.93-23.08,32.78l-18.37,11.91c5.58-.59,11.91-.88,16.9-.88h16.02l-4.56,25.87h-71Z"/><path class="cls-2" d="M953.58,209.81l4.41-24.84c9.41,4.85,21.31,6.32,29.99,6.32,10.14,0,14.4-3.38,14.4-8.38s-3.38-6.03-11.17-6.03h-14.7l3.23-18.82h14.84c8.97,0,12.64-3.53,12.64-8.09s-3.53-6.47-11.02-6.47c-8.67,0-21.02,1.76-30.58,5.29l4.26-24.25c7.5-3.68,18.08-6.62,32.04-6.62,24.84,0,35.87,8.67,35.87,25.43,0,10.44-6.47,21.02-24.11,24.84,12.79,2.2,17.34,10.88,17.34,19.11,0,16.76-11.46,30.43-42.33,30.43-14.11,0-27.49-3.23-35.13-7.94Z"/></g></g></svg>